<svg xmlns="http://www.w3.org/2000/svg" viewBox="0 0 340 79.4215647973583" preserveAspectRatio="xMidYMid meet" class="css-116ckqy" id="gabdgcca"><defs id="SvgjsDefs1026"><linearGradient id="SvgjsLinearGradient1031"><stop id="SvgjsStop1032" stop-color="#006838" offset="0"/><stop id="SvgjsStop1033" stop-color="#96cf24" offset="1"/></linearGradient></defs><g id="SvgjsG1027" featurekey="symbolFeature-0" transform="matrix(1.2814270893092268,0,0,1.2814270893092268,-16.25620099767358,-20.515647993136106)" fill="#04a118"><path xmlns="http://www.w3.org/2000/svg" d="M87.665,44.856c-0.785,0.104-1.562,0.157-2.312,0.157c-9.634,0-17.471-7.838-17.471-17.471c0-3.127,0.839-6.196,2.425-8.877  l1.57-2.655l-3.059,0.403c-9.771,1.292-17.224,9.455-17.737,19.213c-0.051-0.01-0.103-0.012-0.153-0.021  c-0.473-0.081-0.951-0.145-1.433-0.194c-0.126-0.013-0.252-0.032-0.378-0.043c-0.589-0.05-1.182-0.081-1.78-0.081  c-6.987,0-13.426,3.447-17.368,8.967c-0.91,1.274-1.686,2.659-2.307,4.137c-0.059,0-0.117-0.001-0.176-0.001  c-8.16,0-14.8,6.64-14.8,14.8s6.64,14.799,14.8,14.799c3.229,0,6.355-1.061,8.922-3.008c3.301,1.971,7.056,3.008,10.929,3.008  c3.872,0,7.627-1.037,10.927-3.008c2.566,1.947,5.695,3.008,8.924,3.008c8.16,0,14.799-6.639,14.799-14.799  c0-0.448-0.027-0.895-0.068-1.338c-0.012-0.129-0.025-0.256-0.04-0.383c-0.044-0.37-0.1-0.738-0.171-1.103  c-0.014-0.073-0.023-0.149-0.039-0.222c-0.086-0.41-0.195-0.812-0.315-1.213c-0.039-0.131-0.082-0.26-0.125-0.389  c-0.109-0.331-0.229-0.657-0.362-0.979c-0.031-0.077-0.059-0.155-0.092-0.23c-0.175-0.405-0.369-0.803-0.58-1.192  c-0.028-0.051-0.059-0.102-0.087-0.152c-0.104-0.188-0.206-0.377-0.319-0.561c3.896-1.72,7.178-4.621,9.365-8.32l1.57-2.656  L87.665,44.856z M67.188,74.988c-2.875,0-5.65-1.057-7.815-2.977l-0.868-0.77l-0.963,0.646c-3.023,2.027-6.553,3.1-10.204,3.1  s-7.181-1.072-10.206-3.1l-0.963-0.646l-0.867,0.77c-2.164,1.92-4.939,2.977-7.814,2.977c-6.506,0-11.8-5.293-11.8-11.799  s5.294-11.8,11.8-11.8c0.355,0,0.705,0.023,1.053,0.054l1.149,0.098l0.39-1.086c2.609-7.277,9.545-12.168,17.259-12.168  c0.44,0,0.876,0.021,1.311,0.053c0.212,0.016,0.423,0.041,0.635,0.064s0.423,0.045,0.632,0.075c0.267,0.039,0.532,0.087,0.797,0.137  c0.152,0.028,0.303,0.058,0.453,0.09c0.277,0.06,0.555,0.127,0.83,0.2c5.738,1.521,10.531,5.778,12.6,11.549l0.39,1.086l1.149-0.098  c0.349-0.03,0.698-0.054,1.055-0.054c4.062,0,7.652,2.064,9.775,5.199c0.013,0.019,0.023,0.038,0.035,0.058  c0.184,0.274,0.355,0.558,0.516,0.848c0.058,0.104,0.108,0.211,0.162,0.316c0.107,0.207,0.211,0.416,0.305,0.631  c0.064,0.146,0.123,0.293,0.181,0.441c0.071,0.183,0.14,0.367,0.203,0.554c0.056,0.165,0.107,0.333,0.155,0.5  c0.053,0.183,0.1,0.368,0.144,0.555c0.04,0.168,0.079,0.336,0.111,0.506c0.04,0.214,0.07,0.431,0.099,0.648  c0.02,0.144,0.043,0.287,0.057,0.432c0.035,0.366,0.057,0.737,0.057,1.112C78.987,69.695,73.694,74.988,67.188,74.988z"/></g><g id="SvgjsG1028" featurekey="nameFeature-0" transform="matrix(0.7043620861349038,0,0,0.7043620861349038,117.42745910837368,21.97969084156152)" fill="url(#SvgjsLinearGradient1031)"><path d="M3.6523 40 l0 -28.223 l10.215 0 c9.0039 0 13.457 5.6641 13.457 14.102 c0 8.457 -4.4531 14.121 -13.457 14.121 l-10.215 0 z M9.5117 34.8242 l4.0625 0 c5.1953 0 7.5781 -3.2422 7.5781 -8.9453 s-2.3828 -8.9453 -7.5781 -8.9453 l-4.0625 0 l0 17.891 z M48.6770703125 40 l-7.3438 -12.422 l-1.6992 0 l0 12.422 l-5.8594 0 l0 -28.223 l10.234 0 c6.3867 0 9.082 3.7695 9.082 8.4375 c0 3.7891 -2.1484 6.25 -5.9766 7.0703 l8.4961 12.715 l-6.9336 0 z M39.6337703125 16.641 l0 6.7383 l3.457 0 c3.125 0 4.3945 -1.3281 4.3945 -3.3594 c0 -2.0117 -1.2695 -3.3789 -4.3945 -3.3789 l-3.457 0 z M77.236796875 16.934 l-10.469 0 l0 6.4063 l9.2773 0 l0 5.0977 l-9.2773 0 l0 6.3867 l10.469 0 l0 5.1758 l-16.367 0 l0 -28.223 l16.367 0 l0 5.1563 z M103.1200546875 40 l-2.0508 -5.8203 l-11.855 0 l-2.0508 5.8203 l-5.9961 0 l10.391 -28.223 l7.168 0 l10.391 28.223 l-5.9961 0 z M90.9330546875 29.277 l8.418 0 l-4.1992 -11.973 z M146.6600625 40 l-5.8398 0 l-1.8555 -21.27 l-7.1484 21.27 l-3.7891 0 l-7.1484 -21.27 l-1.875 21.27 l-5.8594 0 l2.3633 -28.223 l8.3594 0 l6.0156 17.715 l6.0938 -17.715 l8.3594 0 z M174.9265390625 11.777000000000001 l-9.2773 14.707 l0 13.516 l-5.8789 0 l0 -13.379 l-9.3359 -14.844 l6.4844 0 l5.7617 9.6094 l5.7813 -9.6094 l6.4648 0 z M200.5807109375 40.39063 c-6.0547 0 -10.781 -2.9102 -11.641 -8.2031 l6.0547 -1.3867 c0.39063 3.1641 2.7148 4.8047 5.8203 4.8047 c2.3828 0 4.2773 -1.0547 4.2578 -3.4375 c-0.019531 -2.6563 -3.1445 -3.4961 -6.582 -4.5508 c-4.1406 -1.2891 -8.5742 -2.8125 -8.5742 -8.0078 c0 -5.2539 4.2969 -8.2227 9.9609 -8.2227 c4.9609 0 9.9609 2.0117 11.094 7.4219 l-5.6641 1.4063 c-0.52734 -2.8125 -2.4219 -4.043 -5.0781 -4.043 c-2.3633 0 -4.375 0.97656 -4.375 3.3008 c0 2.168 2.7734 2.8906 5.9766 3.8477 c4.2578 1.2891 9.2969 2.9297 9.2969 8.5547 c0 5.9961 -5.0195 8.5156 -10.547 8.5156 z M233.86765625 11.777000000000001 l0 5.1563 l-6.6992 0 l0 23.066 l-5.8008 0 l0 -23.066 l-6.7383 0 l0 -5.1563 l19.238 0 z M251.7623515625 40.39063 c-8.3008 0 -14.434 -5.6641 -14.434 -14.512 c0 -8.8672 6.1328 -14.492 14.434 -14.492 c8.2813 0 14.414 5.625 14.414 14.492 c0 8.8477 -6.1328 14.512 -14.414 14.512 z M251.7623515625 35.0195 c4.8633 0 8.5938 -3.418 8.5938 -9.1406 c0 -5.7031 -3.7305 -9.1016 -8.5938 -9.1016 s-8.5938 3.3984 -8.5938 9.1016 c0 5.7227 3.7305 9.1406 8.5938 9.1406 z M287.431953125 40 l-7.3438 -12.422 l-1.6992 0 l0 12.422 l-5.8594 0 l0 -28.223 l10.234 0 c6.3867 0 9.082 3.7695 9.082 8.4375 c0 3.7891 -2.1484 6.25 -5.9766 7.0703 l8.4961 12.715 l-6.9336 0 z M278.388653125 16.641 l0 6.7383 l3.457 0 c3.125 0 4.3945 -1.3281 4.3945 -3.3594 c0 -2.0117 -1.2695 -3.3789 -4.3945 -3.3789 l-3.457 0 z M315.9916796875 16.934 l-10.469 0 l0 6.4063 l9.2773 0 l0 5.0977 l-9.2773 0 l0 6.3867 l10.469 0 l0 5.1758 l-16.367 0 l0 -28.223 l16.367 0 l0 5.1563 z"/></g></svg>